{"title":"The.Smurfs.2011.R5.LiNE.x264.Feel-Free","uid":6692203,"size":1275707315,"categoryP":"video","categoryS":"movies","magnet":"?xt=urn:btih:b6b224c72925cd93385df8f9d151de1b760dae12&amp;dn=The.Smurfs.2011.R5.LiNE.x264.Feel-Free&amp;tr=udp%3A%2F%2Ftracker.openbittorrent.com%3A80&amp;tr=udp%3A%2F%2Fopen.demonii.com%3A1337&amp;tr=udp%3A%2F%2Ftracker.coppersurfer.tk%3A6969&amp;tr=udp%3A%2F%2Fexodus.desync.com%3A6969","seeders":0,"leechers":0,"uploader":"hiest","files":-1,"time":1316635334,"description":"Full Credits To Feel Free :)\n\n ######## ######## ######## ##          ######## ########  ######## ######## \n ##       ##       ##       ##          ##       ##     ## ##       ##       \n ##       ##       ##       ##          ##       ##     ## ##       ##       \n ######   ######   ######   ##          ######   ########  ######   ######   \n ##       ##       ##       ##          ##       ##   ##   ##       ##       \n ##       ##       ##       ##          ##       ##    ##  ##       ##       \n ##       ######## ######## ########    ##       ##     ## ######## ########\n\nGenre:Animation | Comedy | Family \n Language:English\n IMDb: &lt;a href=&quot;\nhttp://www.imdb.com/title/tt0472181/&quot; rel=&quot;nofollow&quot; target=&quot;_NEW&quot;&gt;\nhttp://www.imdb.com/title/tt0472181/&lt;/a&gt;\n Source:DvD9/LittlebirD Thanks!\n\n Format : MPEG-4\n Format profile : Base Media\n Codec ID : isom\n File size : 1.19 GiB\n Duration : 1h 38mn\n Overall bit rate : 1 720 Kbps\n\n Video\n ID : 1\n Format : AVC\n Format/Info : Advanced Video Codec\n Format profile : &lt;a class=&quot;__cf_email__&quot; href=&quot;/cdn-cgi/l/email-protection&quot; data-cfemail=&quot;c48cada3ac8488f0eaf5&quot;&gt;[email&amp;#160;protected]&lt;/a&gt;&lt;script data-cfhash='f9e31' type=&quot;text/javascript&quot;&gt;\n/* &lt;![CDATA[ */!function(){try{var t=&quot;currentScript&quot;in document?document.currentScript:function(){for(var t=document.getElementsByTagName(&quot;script&quot;),e=t.length;e--;)if(t[e].getAttribute(&quot;data-cfhash&quot;))return t[e]}();if(t&amp;&amp;t.previousSibling){var e,r,n,i,c=t.previousSibling,a=c.getAttribute(&quot;data-cfemail&quot;);if(a){for(e=&quot;&quot;,r=parseInt(a.substr(0,2),16),n=2;a.length-n;n+=2)i=parseInt(a.substr(n,2),16)^r,e+=String.fromCharCode(i);e=document.createTextNode(e),c.parentNode.replaceChild(e,c)}t.parentNode.removeChild(t);}}catch(u){}}()/* ]]&gt; */&lt;/script&gt;\n Format settings, CABAC : Yes\n Format settings, ReFrames : 3 frames\n Codec ID : avc1\n Codec ID/Info : Advanced Video Coding\n Duration : 1h 38mn\n Bit rate mode : Variable\n Bit rate : 1 500 Kbps\n Maximum bit rate : 12.0 Mbps\n Width : 720 pixels\n Height : 400 pixels\n Display aspect ratio : 16:9\n Frame rate mode : Constant\n Frame rate : 25.000 fps\n Color space : YUV\n Chroma subsampling : 4:2:0\n Bit depth : 8 bits\n Scan type : Progressive\n Bits/(Pixel*Frame) : 0.208\n Stream size : 1.03 GiB (87%)\n Writing library : x264\n\n Audio\n ID : 2\n Format : AAC\n Format/Info : Advanced Audio Codec\n Format version : Version 4\n Format profile : LC\n Format settings, SBR : No\n Codec ID : 40\n Duration : 1h 38mn\n Bit rate mode : Variable\n Bit rate : 224 Kbps\n Maximum bit rate : 279 Kbps\n Channel(s) : 2 channels\n Channel positions : Front: L R\n Sampling rate : 44.1 KHz\n Stream size : 158 MiB (13%)\n\n\n Plot:\n When the evil wizard Gargamel chases the tiny blue Smurfs out of their village, they tumble from their magical world and into ours.\n\n\nGreets:\n\n INK,CRYS,IMAGINE,LKRG,FXG,3Li,FLAWL3SS,TA,iLLUSiON,ViSiON,DTRG \n SAFCuk009,LU,TheFalcon007,MYSTiC,PrisM,Noir,WBZ,LAP,Rx,Kingdom,SAFCuk009+Fabreezy,\n HDLiTE,TWiZTED,ExtraTorrentRG.ELEKTRI4KA,MAGNAT,CM8\n And to all the other p2p grps past and present\n\n\n\n\n\n\n==================================                                                &lt;a href=&quot;\nhttp://thepiratebay.se/user/hiest&quot; rel=&quot;nofollow&quot; target=&quot;_NEW&quot;&gt;\nhttp://thepiratebay.se/user/hiest&lt;/a&gt;\n==================================\n\n\n\n\n\n\nScreenshots:\n &lt;a href=&quot;\nhttp://www.pix2links.com/images/07257808366448495159.png&quot; rel=&quot;nofollow&quot; target=&quot;_NEW&quot;&gt;\nhttp://www.pix2links.com/images/07257808366448495159.png&lt;/a&gt;\n &lt;a href=&quot;\nhttp://www.pix2links.com/images/55614628758580562092.png&quot; rel=&quot;nofollow&quot; target=&quot;_NEW&quot;&gt;\nhttp://www.pix2links.com/images/55614628758580562092.png&lt;/a&gt;\n &lt;a href=&quot;\nhttp://www.pix2links.com/images/02202146747227977075.png&quot; rel=&quot;nofollow&quot; target=&quot;_NEW&quot;&gt;\nhttp://www.pix2links.com/images/02202146747227977075.png&lt;/a&gt;\n &lt;a href=&quot;\nhttp://www.pix2links.com/images/57200302637183315408.png&quot; rel=&quot;nofollow&quot; target=&quot;_NEW&quot;&gt;\nhttp://www.pix2links.com/images/57200302637183315408.png&lt;/a&gt;\n &lt;a href=&quot;\nhttp://www.pix2links.com/images/54755408002472262151.png&quot; rel=&quot;nofollow&quot; target=&quot;_NEW&quot;&gt;\nhttp://www.pix2links.com/images/54755408002472262151.png&lt;/a&gt;\n &lt;a href=&quot;\nhttp://www.pix2links.com/images/55851402247191649973.png&quot; rel=&quot;nofollow&quot; target=&quot;_NEW&quot;&gt;\nhttp://www.pix2links.com/images/55851402247191649973.png&lt;/a&gt;\n &lt;a href=&quot;\nhttp://www.pix2links.com/images/03939004558596820130.png&quot; rel=&quot;nofollow&quot; target=&quot;_NEW&quot;&gt;\nhttp://www.pix2links.com/images/03939004558596820130.png&lt;/a&gt;\n &lt;a href=&quot;\nhttp://www.pix2links.com/images/71655731458511831875.png&quot; rel=&quot;nofollow&quot; target=&quot;_NEW&quot;&gt;\nhttp://www.pix2links.com/images/71655731458511831875.png&lt;/a&gt;\n\n\nFull Credits To Feel Free :)\n\n ######## ######## ######## ##          ######## ########  ######## ######## \n ##       ##       ##       ##          ##       ##     ## ##       ##       \n ##       ##       ##       ##          ##       ##     ## ##       ##       \n ######   ######   ######   ##          ######   ########  ######   ######   \n ##       ##       ##       ##          ##       ##   ##   ##       ##       \n ##       ##       ##       ##          ##       ##    ##  ##       ##       \n ##       ######## ######## ########    ##       ##     ## ######## ########","torrent":{"xt":"urn:btih:b6b224c72925cd93385df8f9d151de1b760dae12","amp;dn":"The.Smurfs.2011.R5.LiNE.x264.Feel-Free","amp;tr":["udp%3A%2F%2Ftracker.openbittorrent.com%3A80","udp%3A%2F%2Fopen.demonii.com%3A1337","udp%3A%2F%2Ftracker.coppersurfer.tk%3A6969","udp%3A%2F%2Fexodus.desync.com%3A6969"],"infoHash":"b6b224c72925cd93385df8f9d151de1b760dae12","infoHashBuffer":{"type":"Buffer","data":[182,178,36,199,41,37,205,147,56,93,248,249,209,81,222,27,118,13,174,18]},"announce":[],"urlList":[]}}